<svg width="306" height="82" viewBox="0 0 306 82" fill="none" xmlns="http://www.w3.org/2000/svg">
<circle cx="37.415" cy="37.415" r="37.415" fill="#2D4959"/>
<rect opacity="0.2" width="74.8323" height="74.8323" rx="37.4161" fill="#84CEEB"/>
<rect x="32.7391" y="31.1801" width="49.8882" height="49.8882" rx="24.9441" fill="#BBD8E9"/>
<path d="M112.599 59.2619C110.778 59.2619 109.132 58.9501 107.66 58.3265C106.213 57.7029 105.066 56.8049 104.218 55.6325C103.37 54.4602 102.933 53.0758 102.908 51.4794H108.521C108.595 52.552 108.97 53.4 109.643 54.0237C110.342 54.6473 111.289 54.9591 112.487 54.9591C113.709 54.9591 114.669 54.6722 115.368 54.0985C116.066 53.4998 116.415 52.7266 116.415 51.7787C116.415 51.0054 116.178 50.3693 115.705 49.8705C115.231 49.3716 114.632 48.9849 113.909 48.7106C113.21 48.4112 112.237 48.087 110.99 47.7377C109.294 47.2389 107.91 46.7524 106.837 46.2785C105.789 45.7796 104.879 45.0438 104.106 44.071C103.357 43.0732 102.983 41.7512 102.983 40.1048C102.983 38.5583 103.37 37.2113 104.143 36.0639C104.916 34.9165 106.001 34.0434 107.398 33.4448C108.795 32.8212 110.391 32.5094 112.187 32.5094C114.881 32.5094 117.064 33.1704 118.735 34.4924C120.431 35.7895 121.367 37.6104 121.541 39.9552H115.779C115.729 39.0572 115.343 38.3213 114.619 37.7476C113.921 37.149 112.986 36.8496 111.813 36.8496C110.791 36.8496 109.967 37.1116 109.344 37.6354C108.745 38.1592 108.446 38.92 108.446 39.9178C108.446 40.6162 108.67 41.2024 109.119 41.6763C109.593 42.1253 110.167 42.4995 110.84 42.7988C111.539 43.0732 112.512 43.3975 113.759 43.7716C115.455 44.2705 116.84 44.7694 117.912 45.2683C118.985 45.7672 119.908 46.5155 120.681 47.5132C121.454 48.511 121.841 49.8206 121.841 51.4419C121.841 52.8388 121.479 54.1359 120.756 55.3332C120.032 56.5305 118.972 57.4909 117.575 58.2143C116.178 58.9127 114.52 59.2619 112.599 59.2619ZM132.481 42.5743V52.6018C132.481 53.3003 132.643 53.8116 132.967 54.1359C133.317 54.4352 133.89 54.5849 134.689 54.5849H137.121V59H133.828C129.413 59 127.205 56.8548 127.205 52.5644V42.5743H124.736V38.2715H127.205V33.1454H132.481V38.2715H137.121V42.5743H132.481ZM150.093 59.3367C148.097 59.3367 146.301 58.9002 144.705 58.0272C143.108 57.1292 141.849 55.8695 140.926 54.2481C140.028 52.6268 139.579 50.756 139.579 48.6357C139.579 46.5155 140.04 44.6447 140.963 43.0233C141.911 41.4019 143.196 40.1547 144.817 39.2817C146.438 38.3837 148.247 37.9347 150.242 37.9347C152.238 37.9347 154.046 38.3837 155.668 39.2817C157.289 40.1547 158.561 41.4019 159.484 43.0233C160.432 44.6447 160.906 46.5155 160.906 48.6357C160.906 50.756 160.419 52.6268 159.447 54.2481C158.499 55.8695 157.202 57.1292 155.555 58.0272C153.934 58.9002 152.113 59.3367 150.093 59.3367ZM150.093 54.772C151.04 54.772 151.926 54.5475 152.749 54.0985C153.597 53.6245 154.271 52.9261 154.77 52.0032C155.269 51.0802 155.518 49.9578 155.518 48.6357C155.518 46.6651 154.994 45.156 153.946 44.1084C152.924 43.0358 151.664 42.4995 150.167 42.4995C148.671 42.4995 147.411 43.0358 146.388 44.1084C145.391 45.156 144.892 46.6651 144.892 48.6357C144.892 50.6063 145.378 52.1279 146.351 53.2005C147.349 54.2481 148.596 54.772 150.093 54.772ZM169.987 41.4892C170.66 40.3917 171.533 39.5311 172.606 38.9075C173.703 38.2839 174.95 37.9721 176.347 37.9721V43.4723H174.963C173.317 43.4723 172.069 43.8589 171.221 44.6322C170.398 45.4055 169.987 46.7524 169.987 48.6731V59H164.748V38.2715H169.987V41.4892ZM199.145 48.1867C199.145 48.9351 199.095 49.6085 198.995 50.2072H183.842C183.966 51.7039 184.49 52.8762 185.413 53.7243C186.336 54.5724 187.471 54.9965 188.818 54.9965C190.764 54.9965 192.148 54.1608 192.971 52.4896H198.621C198.022 54.4851 196.875 56.1314 195.179 57.4285C193.483 58.7007 191.4 59.3367 188.93 59.3367C186.935 59.3367 185.139 58.9002 183.542 58.0272C181.971 57.1292 180.736 55.8695 179.838 54.2481C178.965 52.6268 178.529 50.756 178.529 48.6357C178.529 46.4905 178.965 44.6073 179.838 42.9859C180.711 41.3645 181.933 40.1173 183.505 39.2443C185.076 38.3712 186.885 37.9347 188.93 37.9347C190.901 37.9347 192.659 38.3588 194.206 39.2069C195.777 40.055 196.987 41.2647 197.835 42.8362C198.708 44.3828 199.145 46.1663 199.145 48.1867ZM193.72 46.6901C193.695 45.3431 193.208 44.2705 192.26 43.4723C191.312 42.6491 190.153 42.2376 188.781 42.2376C187.484 42.2376 186.386 42.6367 185.488 43.4349C184.615 44.2081 184.079 45.2932 183.879 46.6901H193.72ZM221.013 32.8835C223.757 32.8835 226.164 33.4198 228.235 34.4924C230.33 35.565 231.939 37.0991 233.061 39.0946C234.209 41.0652 234.783 43.36 234.783 45.9792C234.783 48.5983 234.209 50.8932 233.061 52.8638C231.939 54.8094 230.33 56.3185 228.235 57.3911C226.164 58.4637 223.757 59 221.013 59H211.884V32.8835H221.013ZM220.826 54.5475C223.57 54.5475 225.69 53.7992 227.187 52.3025C228.684 50.8059 229.432 48.6981 229.432 45.9792C229.432 43.2603 228.684 41.14 227.187 39.6184C225.69 38.0719 223.57 37.2986 220.826 37.2986H217.122V54.5475H220.826ZM243.942 41.4892C244.615 40.3917 245.489 39.5311 246.561 38.9075C247.659 38.2839 248.906 37.9721 250.303 37.9721V43.4723H248.918C247.272 43.4723 246.025 43.8589 245.177 44.6322C244.354 45.4055 243.942 46.7524 243.942 48.6731V59H238.704V38.2715H243.942V41.4892ZM256.487 35.802C255.565 35.802 254.791 35.5151 254.168 34.9414C253.569 34.3428 253.27 33.6069 253.27 32.7339C253.27 31.8608 253.569 31.1374 254.168 30.5637C254.791 29.9651 255.565 29.6657 256.487 29.6657C257.41 29.6657 258.171 29.9651 258.77 30.5637C259.393 31.1374 259.705 31.8608 259.705 32.7339C259.705 33.6069 259.393 34.3428 258.77 34.9414C258.171 35.5151 257.41 35.802 256.487 35.802ZM259.069 38.2715V59H253.831V38.2715H259.069ZM272.888 54.1733L278.126 38.2715H283.701L276.031 59H269.67L262.037 38.2715H267.649L272.888 54.1733ZM305.912 48.1867C305.912 48.9351 305.863 49.6085 305.763 50.2072H290.609C290.734 51.7039 291.258 52.8762 292.181 53.7243C293.104 54.5724 294.239 54.9965 295.586 54.9965C297.531 54.9965 298.916 54.1608 299.739 52.4896H305.389C304.79 54.4851 303.643 56.1314 301.946 57.4285C300.25 58.7007 298.167 59.3367 295.698 59.3367C293.702 59.3367 291.906 58.9002 290.31 58.0272C288.738 57.1292 287.504 55.8695 286.606 54.2481C285.733 52.6268 285.296 50.756 285.296 48.6357C285.296 46.4905 285.733 44.6073 286.606 42.9859C287.479 41.3645 288.701 40.1173 290.273 39.2443C291.844 38.3712 293.652 37.9347 295.698 37.9347C297.668 37.9347 299.427 38.3588 300.974 39.2069C302.545 40.055 303.755 41.2647 304.603 42.8362C305.476 44.3828 305.912 46.1663 305.912 48.1867ZM300.487 46.6901C300.462 45.3431 299.976 44.2705 299.028 43.4723C298.08 42.6491 296.92 42.2376 295.548 42.2376C294.251 42.2376 293.154 42.6367 292.256 43.4349C291.383 44.2081 290.846 45.2932 290.647 46.6901H300.487Z" fill="white"/>
</svg>
