<svg width="287" height="214" viewBox="0 0 287 214" fill="none" xmlns="http://www.w3.org/2000/svg">
<path opacity="0.2" d="M37.4162 0H37.4161C16.7518 0 0 16.7518 0 37.4161V37.4162C0 58.0805 16.7518 74.8323 37.4161 74.8323H37.4162C58.0805 74.8323 74.8323 58.0805 74.8323 37.4162V37.4161C74.8323 16.7518 58.0805 0 37.4162 0Z" fill="white"/>
<path d="M82.6265 56.1238C82.6265 42.3475 71.4587 31.1797 57.6824 31.1797C43.9062 31.1797 32.7383 42.3475 32.7383 56.1238C32.7383 69.9 43.9062 81.0679 57.6824 81.0679C71.4587 81.0679 82.6265 69.9 82.6265 56.1238Z" fill="white"/>
<path d="M112.944 55.252C111.264 55.252 109.752 54.964 108.408 54.388C107.064 53.788 106.008 52.948 105.24 51.868C104.472 50.788 104.088 49.528 104.088 48.088H108.48C108.576 49.168 108.996 50.056 109.74 50.752C110.508 51.448 111.576 51.796 112.944 51.796C114.36 51.796 115.464 51.46 116.256 50.788C117.048 50.092 117.444 49.204 117.444 48.124C117.444 47.284 117.192 46.6 116.688 46.072C116.208 45.544 115.596 45.136 114.852 44.848C114.132 44.56 113.124 44.248 111.828 43.912C110.196 43.48 108.864 43.048 107.832 42.616C106.824 42.16 105.96 41.464 105.24 40.528C104.52 39.592 104.16 38.344 104.16 36.784C104.16 35.344 104.52 34.084 105.24 33.004C105.96 31.924 106.968 31.096 108.264 30.52C109.56 29.944 111.06 29.656 112.764 29.656C115.188 29.656 117.168 30.268 118.704 31.492C120.264 32.692 121.128 34.348 121.296 36.46H116.76C116.688 35.548 116.256 34.768 115.464 34.12C114.672 33.472 113.628 33.148 112.332 33.148C111.156 33.148 110.196 33.448 109.452 34.048C108.708 34.648 108.336 35.512 108.336 36.64C108.336 37.408 108.564 38.044 109.02 38.548C109.5 39.028 110.1 39.412 110.82 39.7C111.54 39.988 112.524 40.3 113.772 40.636C115.428 41.092 116.772 41.548 117.804 42.004C118.86 42.46 119.748 43.168 120.468 44.128C121.212 45.064 121.584 46.324 121.584 47.908C121.584 49.18 121.236 50.38 120.54 51.508C119.868 52.636 118.872 53.548 117.552 54.244C116.256 54.916 114.72 55.252 112.944 55.252ZM131.215 38.512V49.492C131.215 50.236 131.383 50.776 131.719 51.112C132.079 51.424 132.679 51.58 133.519 51.58H136.039V55H132.799C130.951 55 129.535 54.568 128.551 53.704C127.567 52.84 127.075 51.436 127.075 49.492V38.512H124.735V35.164H127.075V30.232H131.215V35.164H136.039V38.512H131.215ZM148.425 55.324C146.553 55.324 144.861 54.904 143.349 54.064C141.837 53.2 140.649 52 139.785 50.464C138.921 48.904 138.489 47.104 138.489 45.064C138.489 43.048 138.933 41.26 139.821 39.7C140.709 38.14 141.921 36.94 143.457 36.1C144.993 35.26 146.709 34.84 148.605 34.84C150.501 34.84 152.217 35.26 153.753 36.1C155.289 36.94 156.501 38.14 157.389 39.7C158.277 41.26 158.721 43.048 158.721 45.064C158.721 47.08 158.265 48.868 157.353 50.428C156.441 51.988 155.193 53.2 153.609 54.064C152.049 54.904 150.321 55.324 148.425 55.324ZM148.425 51.76C149.481 51.76 150.465 51.508 151.377 51.004C152.313 50.5 153.069 49.744 153.645 48.736C154.221 47.728 154.509 46.504 154.509 45.064C154.509 43.624 154.233 42.412 153.681 41.428C153.129 40.42 152.397 39.664 151.485 39.16C150.573 38.656 149.589 38.404 148.533 38.404C147.477 38.404 146.493 38.656 145.581 39.16C144.693 39.664 143.985 40.42 143.457 41.428C142.929 42.412 142.665 43.624 142.665 45.064C142.665 47.2 143.205 48.856 144.285 50.032C145.389 51.184 146.769 51.76 148.425 51.76ZM166.882 38.044C167.482 37.036 168.274 36.256 169.258 35.704C170.266 35.128 171.454 34.84 172.822 34.84V39.088H171.778C170.17 39.088 168.946 39.496 168.106 40.312C167.29 41.128 166.882 42.544 166.882 44.56V55H162.778V35.164H166.882V38.044ZM194.775 44.596C194.775 45.34 194.727 46.012 194.631 46.612H179.475C179.595 48.196 180.183 49.468 181.239 50.428C182.295 51.388 183.591 51.868 185.127 51.868C187.335 51.868 188.895 50.944 189.807 49.096H194.235C193.635 50.92 192.543 52.42 190.959 53.596C189.399 54.748 187.455 55.324 185.127 55.324C183.231 55.324 181.527 54.904 180.015 54.064C178.527 53.2 177.351 52 176.487 50.464C175.647 48.904 175.227 47.104 175.227 45.064C175.227 43.024 175.635 41.236 176.451 39.7C177.291 38.14 178.455 36.94 179.943 36.1C181.455 35.26 183.183 34.84 185.127 34.84C186.999 34.84 188.667 35.248 190.131 36.064C191.595 36.88 192.735 38.032 193.551 39.52C194.367 40.984 194.775 42.676 194.775 44.596ZM190.491 43.3C190.467 41.788 189.927 40.576 188.871 39.664C187.815 38.752 186.507 38.296 184.947 38.296C183.531 38.296 182.319 38.752 181.311 39.664C180.303 40.552 179.703 41.764 179.511 43.3H190.491ZM206.985 29.98C209.649 29.98 211.977 30.496 213.969 31.528C215.985 32.536 217.533 34 218.613 35.92C219.717 37.816 220.269 40.036 220.269 42.58C220.269 45.124 219.717 47.332 218.613 49.204C217.533 51.076 215.985 52.516 213.969 53.524C211.977 54.508 209.649 55 206.985 55H198.813V29.98H206.985ZM206.985 51.652C209.913 51.652 212.157 50.86 213.717 49.276C215.277 47.692 216.057 45.46 216.057 42.58C216.057 39.676 215.277 37.408 213.717 35.776C212.157 34.144 209.913 33.328 206.985 33.328H202.917V51.652H206.985ZM228.441 38.044C229.041 37.036 229.833 36.256 230.817 35.704C231.825 35.128 233.013 34.84 234.381 34.84V39.088H233.337C231.729 39.088 230.505 39.496 229.665 40.312C228.849 41.128 228.441 42.544 228.441 44.56V55H224.337V35.164H228.441V38.044ZM240.241 32.536C239.497 32.536 238.873 32.284 238.369 31.78C237.865 31.276 237.613 30.652 237.613 29.908C237.613 29.164 237.865 28.54 238.369 28.036C238.873 27.532 239.497 27.28 240.241 27.28C240.961 27.28 241.573 27.532 242.077 28.036C242.581 28.54 242.833 29.164 242.833 29.908C242.833 30.652 242.581 31.276 242.077 31.78C241.573 32.284 240.961 32.536 240.241 32.536ZM242.257 35.164V55H238.153V35.164H242.257ZM255.313 51.328L260.929 35.164H265.285L257.725 55H252.829L245.305 35.164H249.697L255.313 51.328ZM286.568 44.596C286.568 45.34 286.52 46.012 286.424 46.612H271.268C271.388 48.196 271.976 49.468 273.032 50.428C274.088 51.388 275.384 51.868 276.92 51.868C279.128 51.868 280.688 50.944 281.6 49.096H286.027C285.428 50.92 284.336 52.42 282.752 53.596C281.192 54.748 279.248 55.324 276.92 55.324C275.024 55.324 273.32 54.904 271.808 54.064C270.32 53.2 269.144 52 268.28 50.464C267.44 48.904 267.02 47.104 267.02 45.064C267.02 43.024 267.428 41.236 268.244 39.7C269.084 38.14 270.248 36.94 271.736 36.1C273.248 35.26 274.976 34.84 276.92 34.84C278.792 34.84 280.46 35.248 281.924 36.064C283.388 36.88 284.528 38.032 285.344 39.52C286.16 40.984 286.568 42.676 286.568 44.596ZM282.284 43.3C282.26 41.788 281.72 40.576 280.664 39.664C279.608 38.752 278.3 38.296 276.74 38.296C275.324 38.296 274.112 38.752 273.104 39.664C272.096 40.552 271.496 41.764 271.304 43.3H282.284Z" fill="white"/>
</svg>
