<svg width="287" height="82" viewBox="0 0 287 82" fill="none" xmlns="http://www.w3.org/2000/svg">
<path d="M106.375 51.2619C104.628 51.2619 103.057 50.9626 101.66 50.3639C100.263 49.7403 99.1657 48.8673 98.3675 47.7448C97.5692 46.6223 97.1701 45.3127 97.1701 43.8161H101.735C101.835 44.9386 102.271 45.8615 103.044 46.5849C103.843 47.3083 104.953 47.67 106.375 47.67C107.846 47.67 108.994 47.3207 109.817 46.6223C110.64 45.8989 111.052 44.976 111.052 43.8535C111.052 42.9805 110.79 42.2696 110.266 41.7208C109.767 41.172 109.131 40.748 108.358 40.4486C107.609 40.1493 106.562 39.825 105.215 39.4758C103.518 39.0268 102.134 38.5778 101.061 38.1288C100.014 37.6549 99.1158 36.9315 98.3675 35.9587C97.6191 34.9859 97.245 33.6888 97.245 32.0674C97.245 30.5708 97.6191 29.2612 98.3675 28.1387C99.1158 27.0162 100.163 26.1557 101.51 25.557C102.857 24.9584 104.416 24.659 106.187 24.659C108.707 24.659 110.765 25.2951 112.361 26.5673C113.982 27.8145 114.88 29.5356 115.055 31.7307H110.341C110.266 30.7828 109.817 29.9721 108.994 29.2986C108.17 28.6251 107.085 28.2884 105.738 28.2884C104.516 28.2884 103.518 28.6002 102.745 29.2238C101.972 29.8474 101.585 30.7454 101.585 31.9178C101.585 32.716 101.822 33.377 102.296 33.9008C102.795 34.3997 103.419 34.7988 104.167 35.0981C104.915 35.3975 105.938 35.7217 107.235 36.071C108.956 36.5449 110.353 37.0188 111.426 37.4928C112.523 37.9667 113.446 38.7026 114.194 39.7003C114.968 40.6731 115.354 41.9827 115.354 43.629C115.354 44.9511 114.993 46.1983 114.269 47.3706C113.571 48.543 112.536 49.4909 111.164 50.2143C109.817 50.9127 108.22 51.2619 106.375 51.2619ZM125.364 33.8634V45.2753C125.364 46.0486 125.538 46.6098 125.888 46.9591C126.262 47.2833 126.885 47.4455 127.758 47.4455H130.378V51H127.01C125.089 51 123.618 50.551 122.595 49.653C121.572 48.755 121.061 47.2958 121.061 45.2753V33.8634H118.629V30.3837H121.061V25.2577H125.364V30.3837H130.378V33.8634H125.364ZM143.251 51.3367C141.306 51.3367 139.547 50.9002 137.976 50.0272C136.404 49.1292 135.169 47.882 134.271 46.2856C133.373 44.6642 132.924 42.7934 132.924 40.6731C132.924 38.5778 133.386 36.7195 134.309 35.0981C135.232 33.4768 136.491 32.2296 138.088 31.3565C139.684 30.4835 141.468 30.047 143.438 30.047C145.409 30.047 147.193 30.4835 148.789 31.3565C150.385 32.2296 151.645 33.4768 152.568 35.0981C153.491 36.7195 153.952 38.5778 153.952 40.6731C153.952 42.7684 153.478 44.6268 152.531 46.2481C151.583 47.8695 150.286 49.1292 148.639 50.0272C147.018 50.9002 145.222 51.3367 143.251 51.3367ZM143.251 47.6325C144.349 47.6325 145.372 47.3706 146.319 46.8468C147.292 46.323 148.078 45.5372 148.677 44.4896C149.275 43.4419 149.575 42.1698 149.575 40.6731C149.575 39.1765 149.288 37.9168 148.714 36.8941C148.14 35.8465 147.38 35.0607 146.432 34.5369C145.484 34.0131 144.461 33.7512 143.364 33.7512C142.266 33.7512 141.243 34.0131 140.295 34.5369C139.373 35.0607 138.637 35.8465 138.088 36.8941C137.539 37.9168 137.265 39.1765 137.265 40.6731C137.265 42.8932 137.826 44.6143 138.948 45.8366C140.096 47.0339 141.53 47.6325 143.251 47.6325ZM162.434 33.377C163.058 32.3293 163.881 31.5187 164.904 30.9449C165.952 30.3463 167.186 30.047 168.608 30.047V34.4621H167.523C165.852 34.4621 164.58 34.8861 163.707 35.7342C162.858 36.5823 162.434 38.054 162.434 40.1493V51H158.169V30.3837H162.434V33.377ZM191.424 40.1867C191.424 40.96 191.374 41.6584 191.274 42.282H175.522C175.647 43.9283 176.258 45.2504 177.356 46.2481C178.453 47.2459 179.8 47.7448 181.397 47.7448C183.691 47.7448 185.313 46.7844 186.261 44.8638H190.863C190.239 46.7595 189.104 48.3185 187.458 49.5408C185.837 50.7381 183.816 51.3367 181.397 51.3367C179.426 51.3367 177.655 50.9002 176.083 50.0272C174.537 49.1292 173.315 47.882 172.417 46.2856C171.544 44.6642 171.107 42.7934 171.107 40.6731C171.107 38.5529 171.531 36.6946 172.379 35.0981C173.252 33.4768 174.462 32.2296 176.009 31.3565C177.58 30.4835 179.376 30.047 181.397 30.047C183.342 30.047 185.076 30.471 186.597 31.3191C188.119 32.1672 189.304 33.3645 190.152 34.9111C191 36.4326 191.424 38.1912 191.424 40.1867ZM186.972 38.8398C186.947 37.2683 186.385 36.0086 185.288 35.0607C184.19 34.1128 182.831 33.6389 181.209 33.6389C179.738 33.6389 178.478 34.1128 177.43 35.0607C176.383 35.9837 175.759 37.2433 175.56 38.8398H186.972ZM204.115 24.9958C206.884 24.9958 209.304 25.5321 211.374 26.6047C213.469 27.6523 215.078 29.1739 216.201 31.1694C217.348 33.14 217.922 35.4474 217.922 38.0914C217.922 40.7355 217.348 43.0304 216.201 44.976C215.078 46.9216 213.469 48.4183 211.374 49.4659C209.304 50.4886 206.884 51 204.115 51H195.622V24.9958H204.115ZM204.115 47.5203C207.158 47.5203 209.491 46.6971 211.112 45.0508C212.733 43.4045 213.544 41.0847 213.544 38.0914C213.544 35.0732 212.733 32.716 211.112 31.0198C209.491 29.3236 207.158 28.4755 204.115 28.4755H199.887V47.5203H204.115ZM226.415 33.377C227.038 32.3293 227.861 31.5187 228.884 30.9449C229.932 30.3463 231.166 30.047 232.588 30.047V34.4621H231.503C229.832 34.4621 228.56 34.8861 227.687 35.7342C226.839 36.5823 226.415 38.054 226.415 40.1493V51H222.149V30.3837H226.415V33.377ZM238.679 27.6523C237.906 27.6523 237.257 27.3904 236.734 26.8666C236.21 26.3428 235.948 25.6942 235.948 24.9209C235.948 24.1477 236.21 23.4991 236.734 22.9753C237.257 22.4515 237.906 22.1896 238.679 22.1896C239.428 22.1896 240.064 22.4515 240.587 22.9753C241.111 23.4991 241.373 24.1477 241.373 24.9209C241.373 25.6942 241.111 26.3428 240.587 26.8666C240.064 27.3904 239.428 27.6523 238.679 27.6523ZM240.774 30.3837V51H236.509V30.3837H240.774ZM254.344 47.1836L260.181 30.3837H264.709L256.851 51H251.763L243.943 30.3837H248.507L254.344 47.1836ZM286.828 40.1867C286.828 40.96 286.778 41.6584 286.678 42.282H270.926C271.051 43.9283 271.662 45.2504 272.759 46.2481C273.857 47.2459 275.204 47.7448 276.8 47.7448C279.095 47.7448 280.717 46.7844 281.664 44.8638H286.267C285.643 46.7595 284.508 48.3185 282.862 49.5408C281.24 50.7381 279.22 51.3367 276.8 51.3367C274.83 51.3367 273.059 50.9002 271.487 50.0272C269.941 49.1292 268.719 47.882 267.821 46.2856C266.947 44.6642 266.511 42.7934 266.511 40.6731C266.511 38.5529 266.935 36.6946 267.783 35.0981C268.656 33.4768 269.866 32.2296 271.412 31.3565C272.984 30.4835 274.78 30.047 276.8 30.047C278.746 30.047 280.48 30.471 282.001 31.3191C283.523 32.1672 284.708 33.3645 285.556 34.9111C286.404 36.4326 286.828 38.1912 286.828 40.1867ZM282.375 38.8398C282.35 37.2683 281.789 36.0086 280.692 35.0607C279.594 34.1128 278.235 33.6389 276.613 33.6389C275.142 33.6389 273.882 34.1128 272.834 35.0607C271.787 35.9837 271.163 37.2433 270.963 38.8398H282.375Z" fill="#FA7275"/>
<g clip-path="url(#clip0_0_1)">
<path opacity="0.2" d="M37.4162 0H37.4161C16.7518 0 0 16.7518 0 37.4161V37.4162C0 58.0805 16.7518 74.8323 37.4161 74.8323H37.4162C58.0805 74.8323 74.8323 58.0805 74.8323 37.4162V37.4161C74.8323 16.7518 58.0805 0 37.4162 0Z" fill="#FA7275"/>
<path d="M82.6265 56.1238C82.6265 42.3475 71.4586 31.1797 57.6824 31.1797C43.9061 31.1797 32.7383 42.3475 32.7383 56.1238C32.7383 69.9 43.9061 81.0679 57.6824 81.0679C71.4586 81.0679 82.6265 69.9 82.6265 56.1238Z" fill="#FA7275"/>
</g>
<defs>
<clipPath id="clip0_0_1">
<rect width="83" height="82" fill="white"/>
</clipPath>
</defs>
</svg>
